<?xml version="1.0"?>
<svg xmlns="http://www.w3.org/2000/svg" height="512px" viewBox="-77 0 464 464" width="512px"><path d="m253 452h34v12h-34zm0 0" fill="#422e94"/><path d="m163 436h147v-46h-147zm27-33h31c4.417969 0 8 3.582031 8 8s-3.582031 8-8 8h-31c-4.417969 0-8-3.582031-8-8s3.582031-8 8-8zm0 0" fill="#422e94"/><path d="m0 374h147v-44h-147zm87-31h31c4.417969 0 8 3.582031 8 8s-3.582031 8-8 8h-31c-4.417969 0-8-3.582031-8-8s3.582031-8 8-8zm0 0" fill="#422e94"/><path d="m0 314h147v-314h-147zm113-165c0-4.417969 3.582031-8 8-8s8 3.582031 8 8v31c0 4.417969-3.582031 8-8 8s-8-3.582031-8-8zm0 0" fill="#422e94"/><path d="m0 436h147v-46h-147zm87-33h31c4.417969 0 8 3.582031 8 8s-3.582031 8-8 8h-31c-4.417969 0-8-3.582031-8-8s3.582031-8 8-8zm0 0" fill="#422e94"/><path d="m163 0v314h147v-314zm34 180c0 4.417969-3.582031 8-8 8s-8-3.582031-8-8v-31c0-4.417969 3.582031-8 8-8s8 3.582031 8 8zm0 0" fill="#422e94"/><path d="m23 452h34v12h-34zm0 0" fill="#422e94"/><path d="m163 374h147v-44h-147zm27-31h31c4.417969 0 8 3.582031 8 8s-3.582031 8-8 8h-31c-4.417969 0-8-3.582031-8-8s3.582031-8 8-8zm0 0" fill="#422e94"/></svg>
