<?xml version="1.0" encoding="iso-8859-1"?>
<!-- Generator: Adobe Illustrator 19.0.0, SVG Export Plug-In . SVG Version: 6.00 Build 0)  -->
<svg version="1.1" id="Capa_1" xmlns="http://www.w3.org/2000/svg" xmlns:xlink="http://www.w3.org/1999/xlink" x="0px" y="0px"
	 viewBox="0 0 512 512" style="enable-background:new 0 0 512 512;" xml:space="preserve">
<g>
	<g>
		<path d="M271,204.128v157.618h241V204.128H271z M398.819,288.099h-18.396c-8.284,0-15-6.716-15-15s6.716-15,15-15h18.396
			c8.284,0,15,6.716,15,15S407.103,288.099,398.819,288.099z"/>
	</g>
</g>
<g>
	<g>
		<path d="M0,391.746v32.632c0,8.284,6.716,15,15,15h49.599c8.284,0,15-6.716,15-15v-32.632H0z"/>
	</g>
</g>
<g>
	<g>
		<path d="M432.401,391.746v32.632c0,8.284,6.716,15,15,15H497c8.284,0,15-6.716,15-15v-32.632H432.401z"/>
	</g>
</g>
<g>
	<g>
		<path d="M0,204.128v157.618h241V204.128H0z M131.577,288.099h-18.396c-8.284,0-15-6.716-15-15s6.716-15,15-15h18.396
			c8.284,0,15,6.716,15,15S139.861,288.099,131.577,288.099z"/>
	</g>
</g>
<g>
	<g>
		<path d="M497,72.622H271v101.506h241V87.622C512,79.338,505.284,72.622,497,72.622z M398.819,152.375h-18.396
			c-8.284,0-15-6.716-15-15s6.716-15,15-15h18.396c8.284,0,15,6.716,15,15S407.103,152.375,398.819,152.375z"/>
	</g>
</g>
<g>
	<g>
		<path d="M15,72.622c-8.284,0-15,6.716-15,15v86.506h241V72.622H15z M131.578,152.375h-18.396c-8.284,0-15-6.716-15-15
			s6.716-15,15-15h18.396c8.284,0,15,6.716,15,15S139.862,152.375,131.578,152.375z"/>
	</g>
</g>
<g>
</g>
<g>
</g>
<g>
</g>
<g>
</g>
<g>
</g>
<g>
</g>
<g>
</g>
<g>
</g>
<g>
</g>
<g>
</g>
<g>
</g>
<g>
</g>
<g>
</g>
<g>
</g>
<g>
</g>
</svg>
