<svg height="512pt" viewBox="0 0 512 512" width="512pt" xmlns="http://www.w3.org/2000/svg"><path d="m391.5 55.164062c0-30.417968-24.746094-55.164062-55.164062-55.164062h-160.667969c-30.421875 0-55.167969 24.746094-55.167969 55.164062v115.667969h271zm0 0"/><path d="m120.5 497c0 8.285156 6.714844 15 15 15s15-6.714844 15-15v-96.601562c7.554688 3.890624 16.105469 6.101562 25.167969 6.101562h160.667969c9.0625 0 17.613281-2.210938 25.164062-6.101562v96.601562c0 8.285156 6.714844 15 15 15s15-6.714844 15-15v-155.835938h-271zm0 0"/><path d="m456.835938 200.832031h-401.667969c-30.421875 0-55.167969 24.75-55.167969 55.167969v241c0 8.285156 6.714844 15 15 15s15-6.714844 15-15v-191.933594c7.554688 3.886719 16.105469 6.097656 25.167969 6.097656h401.667969c9.0625 0 17.613281-2.210937 25.164062-6.097656v191.933594c0 8.285156 6.714844 15 15 15s15-6.714844 15-15v-241c0-30.417969-24.746094-55.167969-55.164062-55.167969zm0 0"/></svg>