<svg height="436pt" viewBox="0 -39 436 436" width="436pt" xmlns="http://www.w3.org/2000/svg"><path d="m14 358h196v-168h-196zm153-131c0-4.417969 3.582031-8 8-8s8 3.582031 8 8v30.800781c0 4.417969-3.582031 8-8 8s-8-3.582031-8-8zm0 0"/><path d="m226 358h196v-168h-196zm27-131c0-4.417969 3.582031-8 8-8s8 3.582031 8 8v30.800781c0 4.417969-3.582031 8-8 8s-8-3.582031-8-8zm0 0"/><path d="m0 0h436v66h-436zm0 0"/><path d="m14 174h408v-92h-408zm170.601562-51h66.796876c4.417968 0 8 3.582031 8 8s-3.582032 8-8 8h-66.796876c-4.417968 0-8-3.582031-8-8s3.582032-8 8-8zm0 0"/></svg>