<?xml version="1.0" encoding="iso-8859-1"?>
<!-- Generator: Adobe Illustrator 19.0.0, SVG Export Plug-In . SVG Version: 6.00 Build 0)  -->
<svg version="1.1" id="Layer_1" xmlns="http://www.w3.org/2000/svg" xmlns:xlink="http://www.w3.org/1999/xlink" x="0px" y="0px"
	 viewBox="0 0 512 512" style="enable-background:new 0 0 512 512;" xml:space="preserve">
<g>
	<g>
		<polygon points="271.208,464.467 240.791,464.467 26.205,464.467 26.205,512 485.795,512 485.795,464.467 		"/>
	</g>
</g>
<g>
	<g>
		<path d="M271.208,256v30.417V434.05h184.169h26.206H512V256H271.208z M358.404,337.113h-61.848v-30.417h61.848V337.113z"/>
	</g>
</g>
<g>
	<g>
		<path d="M0,256.001v178.048h30.417h26.205v0.001h184.169V286.418v-30.417H0z M215.443,337.113h-61.848v-30.417h61.848V337.113z"/>
	</g>
</g>
<g>
	<g>
		<polygon points="351.88,0 160.12,0 10.317,107.492 15.209,107.492 496.791,107.492 501.683,107.492 		"/>
	</g>
</g>
<g>
	<g>
		<polygon points="496.791,137.91 15.209,137.91 0,137.91 0,189.335 512,189.335 512,137.91 		"/>
	</g>
</g>
<g>
</g>
<g>
</g>
<g>
</g>
<g>
</g>
<g>
</g>
<g>
</g>
<g>
</g>
<g>
</g>
<g>
</g>
<g>
</g>
<g>
</g>
<g>
</g>
<g>
</g>
<g>
</g>
<g>
</g>
</svg>
