<?xml version="1.0" encoding="utf-8"?>
<!-- Generator: Adobe Illustrator 21.0.0, SVG Export Plug-In . SVG Version: 6.00 Build 0)  -->
<svg version="1.1" id="Слой_1" xmlns="http://www.w3.org/2000/svg" xmlns:xlink="http://www.w3.org/1999/xlink" x="0px" y="0px"
	 viewBox="0 0 50 49" style="enable-background:new 0 0 50 49;" xml:space="preserve">
<style type="text/css">
	.st0{display:none;}
	.st1{display:inline;fill:#5A5793;}
	.st2{display:inline;fill:#DAD6EB;}
	.st3{fill:#5A5793;}
</style>
<g class="st0">
	<path class="st1" d="M-27.1,113.6c1.6-22.7,2.9-46,3.8-69.9c1-23.9,1.5-42.1,1.5-54.8l-0.1-10.6l16.6,0.2c0.9,0,6-0.1,15.2-0.2
		C7.2,13.1,5.5,58.2,4.8,113.6l-14.6-0.2C-12.3,113.4-18,113.5-27.1,113.6z"/>
	<path class="st1" d="M40.1,113.6l2.6-22.4l6.6-78.7l2.3-34.2c9.4,0.1,16.3,0.2,20.7,0.2c3.5,0,9.9-0.1,19.1-0.2
		c1.1,5.4,1.9,9.2,2.4,11.4c0.5,2.2,1.6,5.8,3.1,10.8c1.5,5,3.5,11,5.9,18c3.5,10.7,6.7,21.3,9.4,31.7l7.5,28.3l13.3-36.4L152.2-5
		c0.7-1.6,1.3-3.4,2-5.5c0.7-2.1,1.9-5.8,3.5-11.2c7.9,0.1,14.9,0.2,21,0.2c4.1,0,10.6-0.1,19.6-0.2c-0.9,19-1.6,40.1-2.1,63.1
		c-0.5,23-0.7,40.2-0.7,51.6c0,5.5,0.1,12.4,0.2,20.6c-6.5-0.1-11-0.2-13.4-0.2c-3.4,0-8,0.1-13.7,0.2c0.4-6.7,0.7-12.3,0.8-16.7
		l1.7-59c0.2-8.3,0.3-16.5,0.3-24.6l-0.1-8l-36.4,96.4l-4.2,11.8c-6.4-0.1-10.9-0.2-13.2-0.2c-3,0-7.7,0.1-14,0.2L86.4,52.6
		c-0.6-2.2-2-6.7-4.2-13.7L76,18.7c-0.6-1.9-1-3.5-1.3-4.7c-0.3-1.2-0.9-3.9-1.9-8.2l-1.3,12.7c-0.3,4-0.8,10.8-1.5,20.2l-3.9,61.5
		c-0.1,3-0.2,7.5-0.3,13.5L53,113.4C50.9,113.4,46.5,113.5,40.1,113.6z"/>
	<path class="st1" d="M229.1,110.7c-0.5-10-1.2-18.2-2.1-24.6c13,5.9,24.7,8.8,35.3,8.8c4.2,0,8.2-0.6,11.8-1.9
		c3.7-1.3,6.4-3.1,8.1-5.5c1.8-2.3,2.6-5,2.6-7.9c0-2.2-0.4-4.3-1.3-6c-1.3-2.4-3.4-5-6.3-7.6c-3.8-3.6-10.5-9.6-20.2-17.9
		c-4.6-4-7.8-6.9-9.6-8.6c-4-3.8-7-7.2-9.1-10.2c-2.1-3-3.6-6-4.6-9c-0.9-3-1.4-6.1-1.4-9.5c0-6.2,1.7-12,5.2-17.5
		c3.5-5.5,8.7-9.7,15.6-12.8c6.9-3.1,15.6-4.6,26.1-4.6c9.4,0,20.1,1.2,31.9,3.5c0.3,6.9,1,14.7,2,23.6c-10.3-4-19.8-5.9-28.5-5.9
		c-6.5,0-11.8,1.5-15.9,4.4c-4.1,2.9-6.2,6.4-6.2,10.3c0,1.1,0.1,2.2,0.4,3.3c0.3,1.2,0.7,2.3,1.3,3.4c0.6,1.1,1.6,2.5,3.1,4.3
		c1.5,1.8,3.6,3.8,6.5,6.1c2.8,2.3,5.3,4.2,7.3,5.7l12.2,11.1c3.1,2.6,5.9,5.1,8.3,7.5c2.4,2.4,4.5,4.8,6.3,7s3.1,4.4,4.1,6.4
		c1,2,1.7,4.1,2.2,6.3c0.5,2.1,0.7,4.4,0.7,6.8c0,5.6-1.3,10.8-3.9,15.7s-6.3,9-11.1,12.1c-4.8,3.2-10.1,5.4-15.9,6.6
		c-5.7,1.2-11.8,1.8-18.2,1.8c-4.2,0-9.2-0.4-14.8-1.1C245.7,114.2,238.3,112.8,229.1,110.7z"/>
</g>
<g class="st0">
	<path class="st2" d="M-14.1,102.6c1.6-22.7,2.9-46,3.8-69.9c1-23.9,1.5-42.1,1.5-54.8l-0.1-10.6l16.6,0.2c0.9,0,6-0.1,15.2-0.2
		c-2.7,34.8-4.4,79.9-5.1,135.3l-14.6-0.2C0.7,102.4-5,102.5-14.1,102.6z"/>
	<path class="st2" d="M53.1,102.6l2.6-22.4l6.6-78.7l2.3-34.2c9.4,0.1,16.3,0.2,20.7,0.2c3.5,0,9.9-0.1,19.1-0.2
		c1.1,5.4,1.9,9.2,2.4,11.4c0.5,2.2,1.6,5.8,3.1,10.8c1.5,5,3.5,11,5.9,18c3.5,10.7,6.7,21.3,9.4,31.7l7.5,28.3l13.3-36.4L165.2-16
		c0.7-1.6,1.3-3.4,2-5.5c0.7-2.1,1.9-5.8,3.5-11.2c7.9,0.1,14.9,0.2,21,0.2c4.1,0,10.6-0.1,19.6-0.2c-0.9,19-1.6,40.1-2.1,63.1
		c-0.5,23-0.7,40.2-0.7,51.6c0,5.5,0.1,12.4,0.2,20.6c-6.5-0.1-11-0.2-13.4-0.2c-3.4,0-8,0.1-13.7,0.2c0.4-6.7,0.7-12.3,0.8-16.7
		l1.7-59c0.2-8.3,0.3-16.5,0.3-24.6l-0.1-8l-36.4,96.4l-4.2,11.8c-6.4-0.1-10.9-0.2-13.2-0.2c-3,0-7.7,0.1-14,0.2L99.4,41.6
		c-0.6-2.2-2-6.7-4.2-13.7L89,7.7c-0.6-1.9-1-3.5-1.3-4.7c-0.3-1.2-0.9-3.9-1.9-8.2L84.5,7.5c-0.3,4-0.8,10.8-1.5,20.2l-3.9,61.5
		c-0.1,3-0.2,7.5-0.3,13.5L66,102.4C63.9,102.4,59.5,102.5,53.1,102.6z"/>
	<path class="st2" d="M242.1,99.7c-0.5-10-1.2-18.2-2.1-24.6c13,5.9,24.7,8.8,35.3,8.8c4.2,0,8.2-0.6,11.8-1.9
		c3.7-1.3,6.4-3.1,8.1-5.5c1.8-2.3,2.6-5,2.6-7.9c0-2.2-0.4-4.3-1.3-6c-1.3-2.4-3.4-5-6.3-7.6c-3.8-3.6-10.5-9.6-20.2-17.9
		c-4.6-4-7.8-6.9-9.6-8.6c-4-3.8-7-7.2-9.1-10.2c-2.1-3-3.6-6-4.6-9c-0.9-3-1.4-6.1-1.4-9.5c0-6.2,1.7-12,5.2-17.5
		c3.5-5.5,8.7-9.7,15.6-12.8c6.9-3.1,15.6-4.6,26.1-4.6c9.4,0,20.1,1.2,31.9,3.5c0.3,6.9,1,14.7,2,23.6c-10.3-4-19.8-5.9-28.5-5.9
		c-6.5,0-11.8,1.5-15.9,4.4c-4.1,2.9-6.2,6.4-6.2,10.3c0,1.1,0.1,2.2,0.4,3.3c0.3,1.2,0.7,2.3,1.3,3.4c0.6,1.1,1.6,2.5,3.1,4.3
		c1.5,1.8,3.6,3.8,6.5,6.1c2.8,2.3,5.3,4.2,7.3,5.7l12.2,11.1c3.1,2.6,5.9,5.1,8.3,7.5c2.4,2.4,4.5,4.8,6.3,7s3.1,4.4,4.1,6.4
		c1,2,1.7,4.1,2.2,6.3c0.5,2.1,0.7,4.4,0.7,6.8c0,5.6-1.3,10.8-3.9,15.7s-6.3,9-11.1,12.1c-4.8,3.2-10.1,5.4-15.9,6.6
		c-5.7,1.2-11.8,1.8-18.2,1.8c-4.2,0-9.2-0.4-14.8-1.1C258.7,103.2,251.3,101.8,242.1,99.7z"/>
</g>
<path class="st3" d="M28,11.3c1-0.4,2.3-0.9,4-1.3c1.3-0.3,3.4-0.8,5.7-0.6c1,0.1,4.9,0.2,8,3.2c1,0.9,4.8,5.1,4.3,11.2
	c-0.4,4.1-1.5,5.5-4.3,8.4c-2.4,2.4-7.2,6.4-19.2,11.6c-3.4,1.5-8.1,3.4-13.8,5.5L7.4,37.7C6.7,36.5,2,26.2,0.5,20.1
	c-1.5-6.2,0.2-11,1-12.4c0.4-0.6,1.9-3.4,5.3-5.5C8,1.5,10.5,0,14,0c6,0,10,4.7,11,6C26.7,8,27.5,10,28,11.3z"/>
<path class="st3" d="M54,6"/>
</svg>
