<?xml version="1.0" encoding="utf-8"?>
<!-- Generator: Adobe Illustrator 21.0.0, SVG Export Plug-In . SVG Version: 6.00 Build 0)  -->
<svg version="1.1" id="Слой_1" xmlns="http://www.w3.org/2000/svg" xmlns:xlink="http://www.w3.org/1999/xlink" x="0px" y="0px"
	 viewBox="0 0 353 149" style="enable-background:new 0 0 353 149;" xml:space="preserve">
<style type="text/css">
	.st0{fill:#5B5893;}
	.st1{fill:#DAD6EB;}
</style>
<g>
	<path class="st0" d="M0,146.7c1.6-22.7,2.9-46,3.8-69.9c1-23.9,1.5-42.1,1.5-54.8L5.2,11.4l16.6,0.2c0.9,0,6-0.1,15.2-0.2
		c-2.7,34.8-4.4,79.9-5.1,135.3l-14.6-0.2C14.8,146.5,9.1,146.5,0,146.7z"/>
	<path class="st0" d="M67.1,146.7l2.6-22.4l6.6-78.7l2.3-34.2c9.4,0.1,16.3,0.2,20.7,0.2c3.5,0,9.9-0.1,19.1-0.2
		c1.1,5.4,1.9,9.2,2.4,11.4c0.5,2.2,1.6,5.8,3.1,10.8c1.5,5,3.5,11,5.9,18c3.5,10.7,6.7,21.3,9.4,31.7l7.5,28.3l13.3-36.4L179.2,28
		c0.7-1.6,1.3-3.4,2-5.5c0.7-2.1,1.9-5.8,3.5-11.2c7.9,0.1,14.9,0.2,21,0.2c4.1,0,10.6-0.1,19.6-0.2c-0.9,19-1.6,40.1-2.1,63.1
		c-0.5,23-0.7,40.2-0.7,51.6c0,5.5,0.1,12.4,0.2,20.6c-6.5-0.1-11-0.2-13.4-0.2c-3.4,0-8,0.1-13.7,0.2c0.4-6.7,0.7-12.3,0.8-16.7
		l1.7-59c0.2-8.3,0.3-16.5,0.3-24.6l-0.1-8L162,134.9l-4.2,11.8c-6.4-0.1-10.9-0.2-13.2-0.2c-3,0-7.7,0.1-14,0.2l-17.1-61.1
		c-0.6-2.2-2-6.7-4.2-13.7l-6.1-20.2c-0.6-1.9-1-3.5-1.3-4.7c-0.3-1.2-0.9-3.9-1.9-8.2l-1.3,12.7c-0.3,4-0.8,10.8-1.5,20.2
		l-3.9,61.5c-0.1,3-0.2,7.5-0.3,13.5l-12.8-0.2C77.9,146.5,73.6,146.5,67.1,146.7z"/>
	<path class="st0" d="M256.2,143.8c-0.5-10-1.2-18.2-2.1-24.6c13,5.9,24.7,8.8,35.3,8.8c4.2,0,8.2-0.6,11.8-1.9
		c3.7-1.3,6.4-3.1,8.1-5.5c1.8-2.3,2.6-5,2.6-7.9c0-2.2-0.4-4.3-1.3-6c-1.3-2.4-3.4-5-6.3-7.6c-3.8-3.6-10.5-9.6-20.2-17.9
		c-4.6-4-7.8-6.9-9.6-8.6c-4-3.8-7-7.2-9.1-10.2c-2.1-3-3.6-6-4.6-9c-0.9-3-1.4-6.1-1.4-9.5c0-6.2,1.7-12,5.2-17.5
		c3.5-5.5,8.7-9.7,15.6-12.8C287.2,10.5,296,9,306.5,9c9.4,0,20.1,1.2,31.9,3.5c0.3,6.9,1,14.7,2,23.6c-10.3-4-19.8-5.9-28.5-5.9
		c-6.5,0-11.8,1.5-15.9,4.4c-4.1,2.9-6.2,6.4-6.2,10.3c0,1.1,0.1,2.2,0.4,3.3c0.3,1.2,0.7,2.3,1.3,3.4c0.6,1.1,1.6,2.5,3.1,4.3
		c1.5,1.8,3.6,3.8,6.5,6.1c2.8,2.3,5.3,4.2,7.3,5.7l12.2,11.1c3.1,2.6,5.9,5.1,8.3,7.5c2.4,2.4,4.5,4.8,6.3,7s3.1,4.4,4.1,6.4
		c1,2,1.7,4.1,2.2,6.3c0.5,2.1,0.7,4.4,0.7,6.8c0,5.6-1.3,10.8-3.9,15.7s-6.3,9-11.1,12.1c-4.8,3.2-10.1,5.4-15.9,6.6
		c-5.7,1.2-11.8,1.8-18.2,1.8c-4.2,0-9.2-0.4-14.8-1.1C272.8,147.2,265.4,145.9,256.2,143.8z"/>
</g>
<g>
	<path class="st1" d="M11,137.7c1.6-22.7,2.9-46,3.8-69.9c1-23.9,1.5-42.1,1.5-54.8L16.2,2.4l16.6,0.2c0.9,0,6-0.1,15.2-0.2
		c-2.7,34.8-4.4,79.9-5.1,135.3l-14.6-0.2C25.8,137.5,20.1,137.5,11,137.7z"/>
	<path class="st1" d="M78.1,137.7l2.6-22.4l6.6-78.7l2.3-34.2c9.4,0.1,16.3,0.2,20.7,0.2c3.5,0,9.9-0.1,19.1-0.2
		c1.1,5.4,1.9,9.2,2.4,11.4c0.5,2.2,1.6,5.8,3.1,10.8c1.5,5,3.5,11,5.9,18c3.5,10.7,6.7,21.3,9.4,31.7l7.5,28.3l13.3-36.4L190.2,19
		c0.7-1.6,1.3-3.4,2-5.5c0.7-2.1,1.9-5.8,3.5-11.2c7.9,0.1,14.9,0.2,21,0.2c4.1,0,10.6-0.1,19.6-0.2c-0.9,19-1.6,40.1-2.1,63.1
		c-0.5,23-0.7,40.2-0.7,51.6c0,5.5,0.1,12.4,0.2,20.6c-6.5-0.1-11-0.2-13.4-0.2c-3.4,0-8,0.1-13.7,0.2c0.4-6.7,0.7-12.3,0.8-16.7
		l1.7-59c0.2-8.3,0.3-16.5,0.3-24.6l-0.1-8L173,125.9l-4.2,11.8c-6.4-0.1-10.9-0.2-13.2-0.2c-3,0-7.7,0.1-14,0.2l-17.1-61.1
		c-0.6-2.2-2-6.7-4.2-13.7l-6.1-20.2c-0.6-1.9-1-3.5-1.3-4.7c-0.3-1.2-0.9-3.9-1.9-8.2l-1.3,12.7c-0.3,4-0.8,10.8-1.5,20.2
		l-3.9,61.5c-0.1,3-0.2,7.5-0.3,13.5l-12.8-0.2C88.9,137.5,84.6,137.5,78.1,137.7z"/>
	<path class="st1" d="M267.2,134.8c-0.5-10-1.2-18.2-2.1-24.6c13,5.9,24.7,8.8,35.3,8.8c4.2,0,8.2-0.6,11.8-1.9
		c3.7-1.3,6.4-3.1,8.1-5.5c1.8-2.3,2.6-5,2.6-7.9c0-2.2-0.4-4.3-1.3-6c-1.3-2.4-3.4-5-6.3-7.6c-3.8-3.6-10.5-9.6-20.2-17.9
		c-4.6-4-7.8-6.9-9.6-8.6c-4-3.8-7-7.2-9.1-10.2c-2.1-3-3.6-6-4.6-9c-0.9-3-1.4-6.1-1.4-9.5c0-6.2,1.7-12,5.2-17.5
		c3.5-5.5,8.7-9.7,15.6-12.8C298.2,1.5,307,0,317.5,0c9.4,0,20.1,1.2,31.9,3.5c0.3,6.9,1,14.7,2,23.6c-10.3-4-19.8-5.9-28.5-5.9
		c-6.5,0-11.8,1.5-15.9,4.4c-4.1,2.9-6.2,6.4-6.2,10.3c0,1.1,0.1,2.2,0.4,3.3c0.3,1.2,0.7,2.3,1.3,3.4c0.6,1.1,1.6,2.5,3.1,4.3
		c1.5,1.8,3.6,3.8,6.5,6.1c2.8,2.3,5.3,4.2,7.3,5.7l12.2,11.1c3.1,2.6,5.9,5.1,8.3,7.5c2.4,2.4,4.5,4.8,6.3,7s3.1,4.4,4.1,6.4
		c1,2,1.7,4.1,2.2,6.3c0.5,2.1,0.7,4.4,0.7,6.8c0,5.6-1.3,10.8-3.9,15.7s-6.3,9-11.1,12.1c-4.8,3.2-10.1,5.4-15.9,6.6
		c-5.7,1.2-11.8,1.8-18.2,1.8c-4.2,0-9.2-0.4-14.8-1.1C283.8,138.2,276.4,136.9,267.2,134.8z"/>
</g>
</svg>
