<?xml version="1.0"?>
<svg xmlns="http://www.w3.org/2000/svg" height="512px" viewBox="0 -79 436 436" width="512px"><path d="m32 12.300781c.101562-6.75 5.550781-12.199219 12.300781-12.300781h348.5c6.734375.136719 12.164063 5.5625 12.300781 12.300781v74.699219h-18c-7.390624-.046875-14.492187 2.847656-19.746093 8.042969-5.25 5.195312-8.222657 12.269531-8.253907 19.65625v5.300781h-282.101562v-5.300781c-.035156-7.386719-3.003906-14.460938-8.257812-19.65625-5.25-5.195313-12.355469-8.089844-19.742188-8.042969h-17zm45 123.699219h282v37h-282zm-7 142h-50v-11h50zm345 0h-50v-11h50zm21-27h-436v-136.300781c.0195312-3.148438 1.300781-6.15625 3.558594-8.355469 2.253906-2.199219 5.292968-3.402344 8.441406-3.34375h37c3.148438-.058594 6.1875 1.144531 8.441406 3.34375 2.257813 2.199219 3.539063 5.207031 3.558594 8.355469v66c-.011719 4.472656 3.53125 8.144531 8 8.300781h298c4.46875-.15625 8.011719-3.828125 8-8.300781v-66c.019531-3.148438 1.300781-6.15625 3.558594-8.355469 2.253906-2.199219 5.292968-3.402344 8.441406-3.34375h37c3.148438-.058594 6.1875 1.144531 8.441406 3.34375 2.257813 2.199219 3.539063 5.207031 3.558594 8.355469zm0 0" fill="#933EC5"/></svg>
