<?xml version="1.0" encoding="iso-8859-1"?>
<!-- Generator: Adobe Illustrator 19.0.0, SVG Export Plug-In . SVG Version: 6.00 Build 0)  -->
<svg version="1.1" id="Capa_1" xmlns="http://www.w3.org/2000/svg" xmlns:xlink="http://www.w3.org/1999/xlink" x="0px" y="0px"
	 viewBox="0 0 512 512" style="enable-background:new 0 0 512 512;" xml:space="preserve">
<g>
	<g>
		<g>
			<rect x="51.2" y="332.8" width="34.133" height="8.533"/>
			<polygon points="51.2,145.067 0,145.067 0,247.467 119.467,247.467 119.467,145.067 85.333,145.067 			"/>
			<rect x="51.2" y="307.2" width="34.133" height="8.533"/>
			<path d="M264.533,503.467h110.933V8.533H264.533V503.467z M281.6,256c0-4.71,3.823-8.533,8.533-8.533h25.6
				c4.71,0,8.533,3.823,8.533,8.533c0,4.71-3.823,8.533-8.533,8.533h-17.067V281.6c0,4.71-3.823,8.533-8.533,8.533
				s-8.533-3.823-8.533-8.533V256z"/>
			<rect x="51.2" y="358.4" width="34.133" height="8.533"/>
			<rect x="59.733" y="110.933" width="17.067" height="17.067"/>
			<path d="M0,366.933h34.133v-17.067v-25.6v-25.6c0-4.71,3.823-8.533,8.533-8.533h51.2c4.71,0,8.533,3.823,8.533,8.533v25.6v25.6
				v17.067h17.067v-102.4H0V366.933z"/>
			<path d="M136.533,503.467h110.933V8.533H136.533V503.467z M196.267,247.467h25.6c4.71,0,8.533,3.823,8.533,8.533v25.6
				c0,4.71-3.823,8.533-8.533,8.533c-4.71,0-8.533-3.823-8.533-8.533v-17.067h-17.067c-4.71,0-8.533-3.823-8.533-8.533
				C187.733,251.29,191.556,247.467,196.267,247.467z"/>
			<path d="M392.533,247.467H409.6V179.2c0-4.71,3.814-8.533,8.533-8.533h25.6h25.6c4.719,0,8.533,3.823,8.533,8.533v68.267H512
				v-102.4H392.533V247.467z"/>
			<path d="M0,17.067V128h42.667v-17.067c-4.71,0-8.533-3.823-8.533-8.533c0-4.71,3.823-8.533,8.533-8.533H51.2h34.133h8.533
				c4.71,0,8.533,3.823,8.533,8.533c0,4.71-3.823,8.533-8.533,8.533V128h25.6V8.533H8.533C3.823,8.533,0,12.356,0,17.067z"/>
			<path d="M392.533,503.467H409.6v-76.8c0-4.71,3.814-8.533,8.533-8.533s8.533,3.823,8.533,8.533v76.8h8.533v-76.8
				c0-4.71,3.814-8.533,8.533-8.533c4.719,0,8.533,3.823,8.533,8.533v76.8h8.533v-76.8c0-4.71,3.814-8.533,8.533-8.533
				s8.533,3.823,8.533,8.533v76.8h25.6c4.719,0,8.533-3.823,8.533-8.533V384H392.533V503.467z"/>
			<path d="M503.467,8.533H392.533V128H512V17.067C512,12.356,508.186,8.533,503.467,8.533z"/>
			<path d="M42.667,384H0v110.933c0,4.71,3.823,8.533,8.533,8.533h110.933V384h-25.6H42.667z"/>
			<polygon points="443.733,264.533 418.133,264.533 392.533,264.533 392.533,366.933 512,366.933 512,264.533 469.333,264.533 			
				"/>
			<rect x="426.667" y="187.733" width="8.533" height="59.733"/>
			<rect x="452.267" y="187.733" width="8.533" height="59.733"/>
		</g>
	</g>
</g>
<g>
</g>
<g>
</g>
<g>
</g>
<g>
</g>
<g>
</g>
<g>
</g>
<g>
</g>
<g>
</g>
<g>
</g>
<g>
</g>
<g>
</g>
<g>
</g>
<g>
</g>
<g>
</g>
<g>
</g>
</svg>
