<svg height="512pt" viewBox="0 0 512 512" width="512pt" xmlns="http://www.w3.org/2000/svg"><path d="m401.09375 241v-30.046875h80.882812v-45.039063h-251.792968v45.039063h80.859375v30.046875h-110.90625v90.316406h281.863281v180.683594h30v-271zm0 0"/><path d="m0 105.5h170.113281v-105.5h-170.113281zm60.035156-67.75h50.039063v30h-50.039063zm0 0"/><path d="m0 376.5h170.113281v-105.5h-170.113281zm60.035156-67.75h50.039063v30h-50.039063zm0 0"/><path d="m0 512h170.113281v-105.5h-170.113281zm60.035156-67.75h50.039063v30h-50.039063zm0 0"/><path d="m0 241h170.113281v-105.5h-170.113281zm60.035156-67.75h50.039063v30h-50.039063zm0 0"/><path d="m230.183594 30.023438h251.792968v105.890624h-251.792968zm0 0"/></svg>